<?xml version="1.0" encoding="utf-8"?>
<!-- Generator: Adobe Illustrator 21.0.2, SVG Export Plug-In . SVG Version: 6.00 Build 0)  -->
<svg version="1.1" id="Layer_1" xmlns="http://www.w3.org/2000/svg" xmlns:xlink="http://www.w3.org/1999/xlink" x="0px" y="0px"
	 viewBox="0 0 320 240" style="enable-background:new 0 0 320 240;" xml:space="preserve">
<style type="text/css">
	.st0{fill:none;stroke:#CCCCCC;stroke-miterlimit:10;}
</style>
<g>
	<line class="st0" x1="79.5" y1="0" x2="79.5" y2="240"/>
</g>
<g>
	<line class="st0" x1="119.5" y1="0" x2="119.5" y2="240"/>
</g>
<g>
	<line class="st0" x1="159.5" y1="0" x2="159.5" y2="240"/>
</g>
<g>
	<line class="st0" x1="199.5" y1="0" x2="199.5" y2="240"/>
</g>
<g>
	<line class="st0" x1="279.5" y1="0" x2="279.5" y2="240"/>
</g>
<g>
	<line class="st0" x1="239.5" y1="0" x2="239.5" y2="240"/>
</g>
<g>
	<line class="st0" x1="0" y1="80" x2="320" y2="80"/>
</g>
<g>
	<line class="st0" x1="0" y1="120" x2="320" y2="120"/>
</g>
<g>
	<line class="st0" x1="0" y1="159" x2="320" y2="159"/>
</g>
<g>
	<line class="st0" x1="0" y1="199" x2="320" y2="199"/>
</g>
<g>
	<path d="M318,2v236H2V2H318 M320,0H0v240h320V0L320,0z"/>
</g>
<g>
	<path d="M38,2v236H2V2H38 M40,0H0v240h40V0L40,0z"/>
</g>
<g>
	<path d="M318,2v36H2V2H318 M320,0H0v40h320V0L320,0z"/>
</g>
</svg>
